HIERARCHY
ROOT Hips
{
	OFFSET -0.001795 -0.223333 0.028219
	CHANNELS 6 Xposition Yposition Zposition Zrotation Yrotation Xrotation 
	JOINT LeftUpLeg
	{
		OFFSET 0.069520 -0.091406 -0.006815
		CHANNELS 3 Zrotation Yrotation Xrotation
		JOINT LeftLeg
		{
			OFFSET 0.034277 -0.375199 -0.004496
			CHANNELS 3 Zrotation Yrotation Xrotation
			JOINT LeftFoot
			{
				OFFSET -0.013596 -0.397961 -0.043693
				CHANNELS 3 Zrotation Yrotation Xrotation
				JOINT LeftToe
				{
					OFFSET 0.026358 -0.055791 0.119288
					CHANNELS 3 Zrotation Yrotation Xrotation
					End Site
					{
						OFFSET 0.000000 0.000000 0.000000
					}
				}
			}
		}
	}
	JOINT RightUpLeg
	{
		OFFSET -0.067670 -0.090522 -0.004320
		CHANNELS 3 Zrotation Yrotation Xrotation
		JOINT RightLeg
		{
			OFFSET -0.038290 -0.382569 -0.008850
			CHANNELS 3 Zrotation Yrotation Xrotation
			JOINT RightFoot
			{
				OFFSET 0.015774 -0.398415 -0.042312
				CHANNELS 3 Zrotation Yrotation Xrotation
				JOINT RightToe
				{
					OFFSET -0.025372 -0.048144 0.123348
					CHANNELS 3 Zrotation Yrotation Xrotation
					End Site
					{
						OFFSET 0.000000 0.000000 0.000000
					}
				}
			}
		}
	}
	JOINT Spine
	{
		OFFSET -0.002533 0.108963 -0.026696
		CHANNELS 3 Zrotation Yrotation Xrotation
		JOINT Spine1
		{
			OFFSET 0.005487 0.135180 0.001092
			CHANNELS 3 Zrotation Yrotation Xrotation
			JOINT Spine2
			{
				OFFSET 0.001457 0.052922 0.025425
				CHANNELS 3 Zrotation Yrotation Xrotation
				JOINT Neck
				{
					OFFSET -0.002778 0.213870 -0.042857
					CHANNELS 3 Zrotation Yrotation Xrotation
					JOINT Head
					{
						OFFSET 0.005152 0.064970 0.051349
						CHANNELS 3 Zrotation Yrotation Xrotation
						End Site
						{
							OFFSET 0.000000 0.000000 0.000000
						}
					}
				}
				JOINT LeftShoulder
				{
					OFFSET 0.078845 0.121749 -0.034090
					CHANNELS 3 Zrotation Yrotation Xrotation
					JOINT LeftArm
					{
						OFFSET 0.090977 0.030469 -0.008868
						CHANNELS 3 Zrotation Yrotation Xrotation
						JOINT LeftForeArm
						{
							OFFSET 0.259612 -0.012772 -0.027456
							CHANNELS 3 Zrotation Yrotation Xrotation
							JOINT LeftHand
							{
								OFFSET 0.249234 0.008986 -0.001171
								CHANNELS 3 Zrotation Yrotation Xrotation
								End Site
								{
									OFFSET 0.000000 0.000000 0.000000
								}
							}
						}
					}
				}
				JOINT RightShoulder
				{
					OFFSET -0.081759 0.118833 -0.038615
					CHANNELS 3 Zrotation Yrotation Xrotation
					JOINT RightArm
					{
						OFFSET -0.096012 0.032551 -0.009143
						CHANNELS 3 Zrotation Yrotation Xrotation
						JOINT RightForeArm
						{
							OFFSET -0.253742 -0.013329 -0.021401
							CHANNELS 3 Zrotation Yrotation Xrotation
							JOINT RightHand
							{
								OFFSET -0.255298 0.007772 -0.005559
								CHANNELS 3 Zrotation Yrotation Xrotation
								End Site
								{
									OFFSET 0.000000 0.000000 0.000000
								}
							}
						}
					}
				}
			}
		}
	}
}
MOTION
Frames: 6
Frame Time: 0.050000
0.000000 0.947021 0.000000 0.069741 -1.899497 6.332776 4.929751 -0.280147 -3.401128 2.826296 -0.026175 -4.829409 7.990964 17.604930 22.409051 0.000000 0.000000 0.000000 -3.945601 0.454266 -4.404386 -4.561879 -0.014743 -5.997918 1.912093 -3.249659 16.260781 0.000000 0.000000 0.000000 5.058564 0.212069 -4.140221 -2.764745 1.281225 -2.707679 -4.275695 4.038362 0.930942 5.678222 -2.959017 -8.695067 0.000000 0.000000 0.000000 -18.630690 -2.682757 -1.471133 -53.446671 -5.115655 -3.562202 -7.524056 -15.353909 1.454074 0.000000 0.000000 0.000000 16.679793 -4.770712 -3.302422 62.033363 3.151717 -3.864464 5.994072 18.879812 1.600693 0.000000 0.000000 0.000000 
0.000213 0.945939 0.001307 0.090282 -2.399568 7.094920 4.564414 -0.273400 -3.127588 3.338314 0.043795 -6.440546 8.256047 17.884903 22.739962 0.000000 0.000000 0.000000 -4.173738 0.514119 -5.145189 -4.318883 -0.045202 -6.194833 2.068705 -2.978446 16.050727 0.000000 0.000000 0.000000 6.214111 0.249413 -4.538892 -3.794439 1.717237 -3.348129 -5.047939 4.453859 0.622805 5.707111 -2.791395 -9.661753 0.000000 0.000000 0.000000 -19.790005 -2.540083 -1.793258 -52.032091 -5.405643 -3.241545 -7.554946 -14.620309 1.381321 0.000000 0.000000 0.000000 16.515804 -5.867009 -3.808251 63.097023 2.403483 -4.244847 6.264883 18.325125 1.592313 0.000000 0.000000 0.000000 
0.000258 0.945604 0.002180 0.513528 -2.113761 6.991230 4.044171 -0.291070 -3.386342 3.469958 -0.002904 -5.832128 8.111738 17.735139 22.493791 0.000000 0.000000 0.000000 -4.480128 0.515088 -5.217881 -4.590775 0.010581 -5.660852 1.813964 -3.226365 15.640178 0.000000 0.000000 0.000000 5.897904 0.227986 -4.350064 -3.536636 1.594719 -4.094423 -5.503398 3.772153 0.624203 4.934284 -2.497347 -8.394360 0.000000 0.000000 0.000000 -19.450453 -2.642243 -1.580335 -52.070711 -4.802399 -3.536543 -7.290746 -14.120225 1.312782 0.000000 0.000000 0.000000 17.563545 -4.572612 -3.326038 61.571341 1.987501 -4.435651 6.611992 18.434589 1.636215 0.000000 0.000000 0.000000 
0.000195 0.945652 0.002971 0.675990 -1.968340 7.405283 4.165496 -0.310961 -3.667029 2.972754 0.044632 -6.114926 8.015996 17.632885 22.549346 0.000000 0.000000 0.000000 -4.606577 0.553252 -5.792999 -4.681683 0.044360 -5.291257 1.675745 -3.405202 15.537271 0.000000 0.000000 0.000000 6.081483 0.246400 -4.621921 -3.943062 1.779644 -3.521472 -5.481948 3.030924 -0.747262 4.583391 -2.448586 -7.188133 0.000000 0.000000 0.000000 -19.601168 -2.273978 -1.690626 -52.338172 -4.923757 -3.389725 -6.177899 -13.491771 1.131342 0.000000 0.000000 0.000000 16.354884 -4.612652 -3.372917 62.091118 1.305644 -4.650111 7.778703 18.901170 1.822858 0.000000 0.000000 0.000000 
0.000003 0.945900 0.003585 0.902251 -1.609969 7.346435 3.743893 -0.321495 -3.763151 3.349694 0.011659 -5.907609 7.784557 17.385580 22.522344 0.000000 0.000000 0.000000 -4.690666 0.550681 -5.824008 -4.911148 0.090230 -4.906412 1.458873 -3.687144 15.418329 0.000000 0.000000 0.000000 5.822073 0.238880 -4.588353 -3.672656 1.667524 -3.399819 -5.699987 2.606224 -0.815217 4.184190 -2.178664 -7.192733 0.000000 0.000000 0.000000 -19.818557 -2.428707 -1.594827 -52.007687 -5.072987 -3.297015 -6.560574 -13.257765 1.158858 0.000000 0.000000 0.000000 16.242612 -4.663442 -3.420549 61.788164 1.170804 -4.694002 8.184472 19.029126 1.891178 0.000000 0.000000 0.000000 
-0.000215 0.946169 0.004063 1.143120 -1.373292 7.572128 3.696702 -0.340308 -4.018178 3.026991 0.033246 -5.942293 7.619907 17.210209 22.577567 0.000000 0.000000 0.000000 -4.826646 0.557633 -5.955026 -5.097546 0.097615 -4.962488 1.327848 -3.901898 15.486951 0.000000 0.000000 0.000000 5.674042 0.240675 -4.685917 -3.677715 1.670348 -3.393402 -5.844331 2.382885 -1.029204 4.290385 -2.267842 -7.063740 0.000000 0.000000 0.000000 -20.094556 -2.335632 -1.679352 -51.664899 -5.088169 -3.232690 -6.312376 -13.139727 1.120106 0.000000 0.000000 0.000000 15.795976 -4.597342 -3.347858 62.198629 1.074867 -4.736723 8.226576 19.070329 1.898429 0.000000 0.000000 0.000000 
